<svg width="145" height="50" viewBox="0 0 145 50" fill="none" xmlns="http://www.w3.org/2000/svg">
<path d="M30.9137 24.8144C30.9271 23.7782 31.2024 22.7622 31.714 21.8609C32.2256 20.9597 32.9569 20.2026 33.8397 19.6599C33.2789 18.859 32.5389 18.1998 31.6788 17.7349C30.8186 17.2699 29.8618 17.0119 28.8845 16.9814C26.7996 16.7671 24.7789 18.2285 23.7161 18.2285C22.6329 18.2285 20.998 17.0028 19.2366 17.0393C18.0973 17.0761 16.987 17.4074 16.0138 18.0009C15.0406 18.5944 14.2378 19.4299 13.6836 20.426C11.2826 24.583 13.0739 30.6921 15.3731 34.052C16.5238 35.6976 17.8684 37.5351 19.6287 37.4697C21.3505 37.3979 21.9933 36.3715 24.0718 36.3715C26.131 36.3715 26.7342 37.4697 28.5299 37.4279C30.3781 37.3979 31.5416 35.7748 32.6526 34.1141C33.4792 32.9418 34.1153 31.6462 34.5372 30.2753C33.4632 29.8212 32.5467 29.0608 31.9021 28.089C31.2575 27.1173 30.9134 25.9773 30.9127 24.8112L30.9137 24.8144Z" fill="white"/>
<path d="M27.5228 14.7723C28.5302 13.5627 29.0263 12.008 28.9059 10.4385C27.367 10.6003 25.9455 11.3359 24.9246 12.4988C24.4254 13.067 24.0431 13.728 23.7995 14.444C23.5559 15.1601 23.4559 15.9171 23.505 16.6719C24.2748 16.6797 25.0363 16.5128 25.7322 16.1838C26.4281 15.8548 27.0404 15.3722 27.5228 14.7723Z" fill="white"/>
<path d="M51.5703 33.4702H45.9208L44.5633 37.4773H42.1709L47.5279 22.6523H50.0146L55.3716 37.4773H52.9277L51.5703 33.4702ZM46.5047 31.621H50.9842L48.7761 25.1176H48.7139L46.5047 31.621Z" fill="white"/>
<path d="M66.9212 32.0765C66.9212 35.4353 65.1234 37.5931 62.4106 37.5931C61.7234 37.6291 61.04 37.4707 60.4386 37.1363C59.8372 36.8019 59.3421 36.3048 59.01 35.7021H58.9565V41.0591H56.7397V26.6692H58.8825V28.467H58.9232C59.2707 27.8673 59.7742 27.373 60.3801 27.0366C60.9861 26.7002 61.6719 26.5344 62.3646 26.5567C65.1127 26.5567 66.9212 28.7252 66.9212 32.0765ZM64.6413 32.0765C64.6413 29.8887 63.511 28.4498 61.785 28.4498C60.09 28.4498 58.95 29.9187 58.95 32.0765C58.95 34.2547 60.09 35.7128 61.785 35.7128C63.5099 35.7128 64.6413 34.2847 64.6413 32.0765Z" fill="white"/>
<path d="M78.8191 32.0765C78.8191 35.4353 77.0213 37.5931 74.3074 37.5931C73.6202 37.6291 72.9368 37.4707 72.3354 37.1363C71.734 36.8019 71.2389 36.3048 70.9068 35.7021H70.8554V41.0591H68.6408V26.6692H70.7836V28.467H70.8243C71.1717 27.8673 71.6752 27.373 72.2812 27.0366C72.8871 26.7002 73.5729 26.5344 74.2656 26.5567C77.0095 26.5567 78.8191 28.7252 78.8191 32.0765ZM76.5381 32.0765C76.5381 29.8887 75.4067 28.4498 73.6817 28.4498C71.9868 28.4498 70.8468 29.9187 70.8468 32.0765C70.8468 34.2547 71.9868 35.7128 73.6817 35.7128C75.4067 35.7107 76.537 34.2825 76.537 32.0765H76.5381Z" fill="white"/>
<path d="M86.6789 33.3469C86.8428 34.8168 88.271 35.7821 90.223 35.7821C92.0926 35.7821 93.4372 34.8179 93.4372 33.4915C93.4372 32.3408 92.6262 31.6519 90.7041 31.1794L88.7831 30.7166C86.0607 30.0587 84.7975 28.7881 84.7975 26.7203C84.7975 24.1629 87.0271 22.4058 90.1909 22.4058C93.3247 22.4058 95.4718 24.1629 95.5479 26.7203H93.3087C93.1747 25.2407 91.9512 24.3482 90.1641 24.3482C88.377 24.3482 87.1535 25.2514 87.1535 26.5671C87.1535 27.6149 87.9345 28.232 89.8448 28.7045L91.4776 29.1052C94.5193 29.8241 95.7814 31.0466 95.7814 33.2151C95.7814 35.9889 93.5733 37.7257 90.0591 37.7257C86.771 37.7257 84.5521 36.0296 84.4086 33.3479L86.6789 33.3469Z" fill="white"/>
<path d="M100.572 24.1118V26.6692H102.627V28.4263H100.572V34.3844C100.572 35.3101 100.983 35.7418 101.886 35.7418C102.13 35.7375 102.374 35.7204 102.616 35.6904V37.4368C102.21 37.5142 101.797 37.5501 101.384 37.5439C99.196 37.5439 98.3421 36.7222 98.3421 34.6254V28.4263H96.7714V26.6692H98.3432V24.1118H100.572Z" fill="white"/>
<path d="M103.816 32.0742C103.816 28.6736 105.818 26.5361 108.942 26.5361C112.067 26.5361 114.07 28.6736 114.07 32.0742C114.07 35.4748 112.087 37.6122 108.942 37.6122C105.798 37.6122 103.816 35.4834 103.816 32.0742ZM111.808 32.0742C111.808 29.7418 110.737 28.365 108.941 28.365C107.146 28.365 106.074 29.7525 106.074 32.0742C106.074 34.4163 107.146 35.7823 108.941 35.7823C110.737 35.7823 111.808 34.4163 111.808 32.0742Z" fill="white"/>
<path d="M115.898 26.6692H118.014V28.5088H118.065C118.208 27.934 118.545 27.4261 119.019 27.0704C119.492 26.7147 120.074 26.5329 120.666 26.5556C120.921 26.5547 121.176 26.5823 121.425 26.6381V28.7134C121.103 28.615 120.766 28.5697 120.429 28.5795C120.107 28.5664 119.785 28.6233 119.487 28.7461C119.189 28.869 118.921 29.0549 118.701 29.2911C118.481 29.5273 118.315 29.8083 118.215 30.1147C118.114 30.4211 118.08 30.7457 118.117 31.0662V37.4774H115.898V26.6692Z" fill="white"/>
<path d="M131.654 34.3028C131.355 36.2645 129.445 37.6113 127 37.6113C123.855 37.6113 121.904 35.5049 121.904 32.1246C121.904 28.7444 123.866 26.5352 126.907 26.5352C129.897 26.5352 131.777 28.589 131.777 31.8664V32.626H124.143V32.76C124.108 33.158 124.157 33.5591 124.289 33.9365C124.42 34.3139 124.63 34.6591 124.905 34.9489C125.18 35.2388 125.514 35.4668 125.884 35.6177C126.254 35.7686 126.652 35.839 127.051 35.8242C127.576 35.8734 128.102 35.752 128.552 35.4781C129.001 35.2042 129.351 34.7923 129.548 34.3039L131.654 34.3028ZM124.154 31.0768H129.558C129.578 30.7192 129.524 30.3614 129.399 30.0257C129.274 29.6901 129.081 29.3839 128.832 29.1264C128.583 28.8689 128.284 28.6655 127.953 28.5292C127.621 28.3928 127.266 28.3264 126.908 28.334C126.546 28.3319 126.188 28.4013 125.854 28.5383C125.52 28.6753 125.216 28.8771 124.96 29.132C124.704 29.387 124.501 29.6902 124.363 30.0239C124.225 30.3577 124.154 30.7156 124.155 31.0768H124.154Z" fill="white"/>
<path d="M46.2283 11.4949C46.693 11.4616 47.1594 11.5318 47.5937 11.7005C48.028 11.8691 48.4196 12.132 48.7401 12.4701C49.0606 12.8083 49.3022 13.2133 49.4473 13.656C49.5925 14.0988 49.6377 14.5682 49.5796 15.0305C49.5796 17.3061 48.3497 18.6143 46.2283 18.6143H43.657V11.4949H46.2283ZM44.7583 17.6104H46.1019C46.4343 17.6304 46.7669 17.5759 47.0756 17.4511C47.3843 17.3263 47.6613 17.1342 47.8864 16.8888C48.1115 16.6434 48.279 16.3509 48.3767 16.0325C48.4745 15.7142 48.5 15.3781 48.4514 15.0487C48.4957 14.7206 48.4671 14.3869 48.3676 14.0712C48.2681 13.7555 48.1001 13.4657 47.8757 13.2223C47.6513 12.979 47.376 12.7882 47.0694 12.6635C46.7628 12.5388 46.4324 12.4833 46.1019 12.5009H44.7583V17.6104Z" fill="white"/>
<path d="M50.831 15.9272C50.7969 15.5737 50.837 15.2171 50.9489 14.8801C51.0608 14.5431 51.2419 14.2332 51.4806 13.9704C51.7193 13.7075 52.0103 13.4975 52.335 13.3537C52.6597 13.21 53.0109 13.1357 53.3659 13.1357C53.721 13.1357 54.0721 13.21 54.3968 13.3537C54.7215 13.4975 55.0125 13.7075 55.2513 13.9704C55.49 14.2332 55.6711 14.5431 55.7829 14.8801C55.8948 15.2171 55.935 15.5737 55.9008 15.9272C55.935 16.2806 55.8948 16.6373 55.7829 16.9743C55.6711 17.3112 55.49 17.6211 55.2513 17.884C55.0125 18.1468 54.7215 18.3569 54.3968 18.5006C54.0721 18.6444 53.721 18.7186 53.3659 18.7186C53.0109 18.7186 52.6597 18.6444 52.335 18.5006C52.0103 18.3569 51.7193 18.1468 51.4806 17.884C51.2419 17.6211 51.0608 17.3112 50.9489 16.9743C50.837 16.6373 50.7969 16.2806 50.831 15.9272ZM54.8102 15.9272C54.8102 14.7615 54.2863 14.0801 53.3681 14.0801C52.4499 14.0801 51.927 14.7615 51.927 15.9272C51.927 17.0929 52.4456 17.7775 53.3681 17.7775C54.2905 17.7775 54.8145 17.0939 54.8145 15.9272H54.8102Z" fill="white"/>
<path d="M62.641 18.6174H61.5407L60.4296 14.6532H60.3429L59.2361 18.6174H58.1486L56.6669 13.2422H57.7383L58.7026 17.3446H58.7818L59.8875 13.2422H60.9053L62.011 17.3446H62.0946L63.0524 13.2422H64.1131L62.641 18.6174Z" fill="white"/>
<path d="M65.3634 13.2421H66.3845V14.0938H66.4638C66.5981 13.7864 66.8253 13.5287 67.1136 13.357C67.4018 13.1852 67.7365 13.1079 68.0709 13.136C68.3324 13.1163 68.5951 13.1557 68.8393 13.2513C69.0836 13.3469 69.3032 13.4962 69.482 13.6882C69.6607 13.8802 69.7939 14.11 69.8718 14.3605C69.9497 14.611 69.9702 14.8757 69.9319 15.1352V18.6151H68.8712V15.4009C68.8712 14.5374 68.4962 14.1078 67.7109 14.1078C67.5332 14.0992 67.3557 14.1292 67.1907 14.1957C67.0256 14.2622 66.877 14.3636 66.7548 14.4929C66.6327 14.6223 66.54 14.7766 66.4831 14.9451C66.4262 15.1137 66.4064 15.2926 66.4252 15.4695V18.6141H65.3645L65.3634 13.2421Z" fill="white"/>
<path d="M71.6183 11.1436H72.6789V18.6176H71.6183V11.1436Z" fill="white"/>
<path d="M74.1542 15.9274C74.1209 15.5744 74.1617 15.2183 74.274 14.8819C74.3863 14.5456 74.5676 14.2364 74.8062 13.9741C75.0449 13.7119 75.3357 13.5024 75.6601 13.359C75.9844 13.2157 76.3351 13.1416 76.6897 13.1416C77.0443 13.1416 77.395 13.2157 77.7193 13.359C78.0436 13.5024 78.3344 13.7119 78.5731 13.9741C78.8118 14.2364 78.9931 14.5456 79.1054 14.8819C79.2176 15.2183 79.2584 15.5744 79.2251 15.9274C79.2601 16.2814 79.2205 16.6387 79.109 16.9765C78.9975 17.3142 78.8165 17.6249 78.5776 17.8885C78.3388 18.152 78.0474 18.3627 77.7223 18.5068C77.3971 18.651 77.0454 18.7255 76.6897 18.7255C76.334 18.7255 75.9823 18.651 75.6571 18.5068C75.3319 18.3627 75.0406 18.152 74.8017 17.8885C74.5629 17.6249 74.3819 17.3142 74.2704 16.9765C74.1589 16.6387 74.1193 16.2814 74.1542 15.9274ZM78.1334 15.9274C78.1334 14.7617 77.6095 14.0803 76.6913 14.0803C75.7731 14.0803 75.2503 14.7617 75.2503 15.9274C75.2503 17.0931 75.7688 17.7777 76.6913 17.7777C77.6138 17.7777 78.1334 17.0974 78.1334 15.9274Z" fill="white"/>
<path d="M80.3405 17.0938C80.3405 16.1295 81.0605 15.5681 82.3397 15.4867L83.7957 15.4031V14.9392C83.7957 14.3713 83.4207 14.051 82.6954 14.051C82.1029 14.051 81.6926 14.2653 81.5747 14.6488H80.5473C80.6544 13.7253 81.5244 13.1328 82.7436 13.1328C84.0914 13.1328 84.8511 13.8035 84.8511 14.9392V18.6119H83.83V17.8566H83.7475C83.5772 18.1276 83.338 18.3486 83.0543 18.4969C82.7706 18.6452 82.4527 18.7156 82.1329 18.7009C81.9074 18.7243 81.6794 18.7003 81.4637 18.6304C81.248 18.5604 81.0493 18.4461 80.8804 18.2947C80.7116 18.1433 80.5763 17.9582 80.4833 17.7514C80.3903 17.5446 80.3417 17.3205 80.3405 17.0938ZM83.7957 16.6341V16.1852L82.4833 16.2688C81.7429 16.3181 81.4119 16.5699 81.4119 17.0445C81.4119 17.5191 81.8319 17.8095 82.4083 17.8095C82.5777 17.8267 82.7489 17.8095 82.9115 17.7591C83.0742 17.7087 83.225 17.626 83.355 17.516C83.485 17.406 83.5915 17.271 83.6682 17.1189C83.7448 16.9668 83.79 16.8009 83.8011 16.6309L83.7957 16.6341Z" fill="white"/>
<path d="M86.2482 15.9252C86.2482 14.227 87.1214 13.1503 88.4799 13.1503C88.8159 13.1348 89.1493 13.2152 89.4413 13.3821C89.7333 13.5491 89.9717 13.7957 90.1288 14.0931H90.208V11.1436H91.2687V18.6176H90.252V17.768H90.1684C89.9993 18.0635 89.7526 18.307 89.4549 18.4723C89.1573 18.6375 88.8201 18.7182 88.4799 18.7055C87.1117 18.7108 86.2482 17.6298 86.2482 15.9252ZM87.3442 15.9252C87.3442 17.0652 87.8799 17.7466 88.7809 17.7466C89.682 17.7466 90.2273 17.0502 90.2273 15.9252C90.2273 14.8002 89.6691 14.1038 88.7809 14.1038C87.8928 14.1038 87.3442 14.7949 87.3442 15.9252Z" fill="white"/>
<path d="M95.6572 15.9272C95.6231 15.5737 95.6632 15.2171 95.7751 14.8801C95.887 14.5431 96.0681 14.2332 96.3068 13.9704C96.5455 13.7075 96.8365 13.4975 97.1612 13.3537C97.4859 13.21 97.837 13.1357 98.1921 13.1357C98.5472 13.1357 98.8983 13.21 99.223 13.3537C99.5477 13.4975 99.8387 13.7075 100.077 13.9704C100.316 14.2332 100.497 14.5431 100.609 14.8801C100.721 15.2171 100.761 15.5737 100.727 15.9272C100.761 16.2806 100.721 16.6373 100.609 16.9743C100.497 17.3112 100.316 17.6211 100.077 17.884C99.8387 18.1468 99.5477 18.3569 99.223 18.5006C98.8983 18.6444 98.5472 18.7186 98.1921 18.7186C97.837 18.7186 97.4859 18.6444 97.1612 18.5006C96.8365 18.3569 96.5455 18.1468 96.3068 17.884C96.0681 17.6211 95.887 17.3112 95.7751 16.9743C95.6632 16.6373 95.6231 16.2806 95.6572 15.9272ZM99.6363 15.9272C99.6363 14.7615 99.1124 14.0801 98.1942 14.0801C97.276 14.0801 96.7532 14.7615 96.7532 15.9272C96.7532 17.0929 97.2718 17.7775 98.1942 17.7775C99.1167 17.7775 99.6363 17.0939 99.6363 15.9272Z" fill="white"/>
<path d="M102.151 13.2421H103.172V14.0938H103.255C103.39 13.7864 103.617 13.5287 103.905 13.357C104.194 13.1852 104.528 13.1079 104.863 13.136C105.124 13.1163 105.387 13.1557 105.631 13.2513C105.875 13.3469 106.095 13.4962 106.274 13.6882C106.452 13.8802 106.586 14.11 106.664 14.3605C106.741 14.611 106.762 14.8757 106.724 15.1352V18.6151H105.663V15.4009C105.663 14.5374 105.288 14.1078 104.503 14.1078C104.325 14.0992 104.147 14.1292 103.982 14.1957C103.817 14.2622 103.669 14.3636 103.547 14.4929C103.424 14.6223 103.332 14.7766 103.275 14.9451C103.218 15.1137 103.198 15.2926 103.217 15.4695V18.6141H102.156L102.151 13.2421Z" fill="white"/>
<path d="M112.713 11.9043V13.2671H113.877V14.1607H112.713V16.9249C112.713 17.4884 112.945 17.7348 113.472 17.7348C113.608 17.7344 113.743 17.7261 113.877 17.7102V18.5941C113.687 18.6283 113.494 18.6466 113.3 18.6487C112.121 18.6487 111.65 18.2341 111.65 17.197V14.1607H110.793V13.2671H111.65V11.9043H112.713Z" fill="white"/>
<path d="M115.319 11.1436H116.37V14.1038H116.454C116.595 13.794 116.828 13.5351 117.121 13.3626C117.415 13.19 117.754 13.1121 118.093 13.1396C118.354 13.1254 118.614 13.1689 118.855 13.2669C119.097 13.3648 119.314 13.5149 119.49 13.7064C119.667 13.8978 119.8 14.126 119.878 14.3745C119.957 14.623 119.979 14.8858 119.945 15.1441V18.6144H118.883V15.4002C118.883 14.5431 118.483 14.107 117.733 14.107C117.551 14.0921 117.368 14.1172 117.196 14.1806C117.024 14.2439 116.869 14.344 116.74 14.4738C116.611 14.6036 116.512 14.76 116.45 14.932C116.388 15.1041 116.364 15.2876 116.38 15.4699V18.609H115.319V11.1436Z" fill="white"/>
<path d="M126.136 17.1656C125.992 17.657 125.68 18.082 125.254 18.3664C124.828 18.6508 124.316 18.7764 123.807 18.7213C123.453 18.7307 123.101 18.6629 122.775 18.5226C122.45 18.3823 122.159 18.1729 121.923 17.9088C121.687 17.6448 121.511 17.3325 121.407 16.9936C121.304 16.6547 121.275 16.2974 121.324 15.9464C121.276 15.5944 121.305 15.2364 121.409 14.8966C121.512 14.5569 121.687 14.2432 121.922 13.977C122.157 13.7107 122.446 13.498 122.771 13.3533C123.095 13.2086 123.447 13.1353 123.802 13.1383C125.302 13.1383 126.199 14.1604 126.199 15.8478V16.2185H122.403V16.2775C122.387 16.4747 122.412 16.6732 122.476 16.8603C122.541 17.0473 122.644 17.2189 122.779 17.3638C122.913 17.5088 123.077 17.624 123.259 17.702C123.441 17.7801 123.637 17.8192 123.835 17.8171C124.089 17.848 124.346 17.8026 124.574 17.6865C124.802 17.5705 124.99 17.3891 125.114 17.1656H126.136ZM122.405 15.4332H125.119C125.133 15.2528 125.108 15.0716 125.047 14.9012C124.987 14.7308 124.891 14.5751 124.766 14.4439C124.642 14.3127 124.491 14.2091 124.324 14.1396C124.157 14.0701 123.977 14.0363 123.796 14.0404C123.613 14.0379 123.431 14.0723 123.26 14.1414C123.09 14.2105 122.936 14.3131 122.806 14.4429C122.676 14.5727 122.574 14.7272 122.505 14.8973C122.435 15.0674 122.401 15.2496 122.403 15.4332H122.405Z" fill="white"/>
</svg>
