<svg width="167" height="50" viewBox="0 0 167 50" fill="none" xmlns="http://www.w3.org/2000/svg">
<g clip-path="url(#clip0_1_216)">
<path d="M159.479 1.77158C160.776 1.77158 162.02 2.2868 162.937 3.20388C163.854 4.12096 164.369 5.36478 164.369 6.66173V43.3384C164.369 44.6353 163.854 45.8792 162.937 46.7963C162.02 47.7133 160.776 48.2285 159.479 48.2285H6.661C5.36405 48.2285 4.12022 47.7133 3.20314 46.7963C2.28606 45.8792 1.77085 44.6353 1.77085 43.3384V6.66173C1.77085 5.36478 2.28606 4.12096 3.20314 3.20388C4.12022 2.2868 5.36405 1.77158 6.661 1.77158H159.479ZM159.479 0.549316H6.661C5.03988 0.549316 3.48517 1.1933 2.33887 2.3396C1.19257 3.4859 0.548584 5.04062 0.548584 6.66173V43.3384C0.548584 44.9595 1.19257 46.5142 2.33887 47.6605C3.48517 48.8068 5.03988 49.4508 6.661 49.4508H159.479C161.1 49.4508 162.655 48.8068 163.801 47.6605C164.947 46.5142 165.591 44.9595 165.591 43.3384V6.66173C165.591 5.04062 164.947 3.4859 163.801 2.3396C162.655 1.1933 161.1 0.549316 159.479 0.549316Z" fill="white" stroke="white" stroke-width="1.09718"/>
<path d="M58.5216 13.0804C58.5437 13.5291 58.4737 13.9775 58.316 14.3981C58.1582 14.8187 57.916 15.2026 57.6044 15.526C57.2578 15.8862 56.8391 16.1693 56.3758 16.3569C55.9124 16.5444 55.4147 16.6322 54.9152 16.6144C54.3385 16.627 53.7665 16.5095 53.2415 16.2706C52.7165 16.0318 52.252 15.6777 51.8826 15.2348C51.5132 14.7919 51.2483 14.2714 51.1075 13.712C50.9668 13.1527 50.9539 12.5688 51.0698 12.0038C51.1857 11.4388 51.4273 10.9071 51.7768 10.4483C52.1263 9.98946 52.5747 9.61526 53.0886 9.35346C53.6025 9.09165 54.1688 8.94897 54.7455 8.93603C55.3221 8.92308 55.8942 9.0402 56.4194 9.27867C56.8602 9.46008 57.2532 9.74052 57.5682 10.0983L56.9197 10.7467C56.6758 10.4565 56.3677 10.227 56.0198 10.0764C55.6719 9.92579 55.2937 9.85814 54.9152 9.87883C54.5444 9.87444 54.1764 9.94344 53.8323 10.0818C53.4883 10.2202 53.1751 10.4253 52.9106 10.6853C52.37 11.2591 52.069 12.0177 52.069 12.8061C52.069 13.5945 52.37 14.3531 52.9106 14.927C53.4568 15.4503 54.184 15.7425 54.9404 15.7425C55.6968 15.7425 56.424 15.4503 56.9702 14.927C57.3436 14.5225 57.5603 13.998 57.5813 13.448H54.9152V12.5702H58.4722C58.4991 12.7391 58.5156 12.9095 58.5216 13.0804Z" fill="white" stroke="white" stroke-width="0.219437" stroke-miterlimit="10"/>
<path d="M64.1238 10.0126H60.8202V12.3353H63.8276V13.2273H60.8202V15.5501H64.1238V16.4421H59.8668V9.10742H64.1238V10.0126Z" fill="white" stroke="white" stroke-width="0.219437" stroke-miterlimit="10"/>
<path d="M68.1307 16.4432H67.1872V10.0126H65.1354V9.10742H70.2329V10.0126H68.1307V16.4432Z" fill="white" stroke="white" stroke-width="0.219437" stroke-miterlimit="10"/>
<path d="M73.8273 16.4432V9.10742H74.7709V16.4432H73.8273Z" fill="white" stroke="white" stroke-width="0.219437" stroke-miterlimit="10"/>
<path d="M78.9501 16.4432H78.0087V10.0126H75.9548V9.10742H80.9919V10.0126H78.9501V16.4432Z" fill="white" stroke="white" stroke-width="0.219437" stroke-miterlimit="10"/>
<path d="M90.5396 15.5018C89.8267 16.2147 88.8597 16.6152 87.8515 16.6152C86.8433 16.6152 85.8764 16.2147 85.1634 15.5018C84.4715 14.7652 84.0864 13.7926 84.0864 12.7819C84.0864 11.7713 84.4715 10.7986 85.1634 10.062C85.5089 9.69872 85.9267 9.41199 86.3899 9.22034C86.8532 9.0287 87.3515 8.93641 87.8526 8.94945C88.3523 8.9412 88.8484 9.03515 89.3104 9.22552C89.7725 9.41589 90.1908 9.69867 90.5396 10.0565C91.2331 10.7935 91.6192 11.7672 91.6192 12.7792C91.6192 13.7911 91.2331 14.7649 90.5396 15.5018ZM85.8568 14.8907C86.3876 15.4147 87.1035 15.7085 87.8493 15.7085C88.5952 15.7085 89.311 15.4147 89.8418 14.8907C90.3674 14.3141 90.6587 13.5621 90.6587 12.7819C90.6587 12.0018 90.3674 11.2497 89.8418 10.6731C89.311 10.1492 88.5952 9.85537 87.8493 9.85537C87.1035 9.85537 86.3876 10.1492 85.8568 10.6731C85.3315 11.2497 85.0404 12.0016 85.0406 12.7816C85.0408 13.5616 85.3323 14.3134 85.8579 14.8896L85.8568 14.8907Z" fill="white" stroke="white" stroke-width="0.219437" stroke-miterlimit="10"/>
<path d="M92.9479 16.4432V9.10742H94.0846L97.6549 14.8128V9.10742H98.5962V16.4432H97.6186L93.8882 10.4646V16.4432H92.9479Z" fill="white" stroke="white" stroke-width="0.219437" stroke-miterlimit="10"/>
<path d="M83.8522 27.1529C82.8256 27.1576 81.8233 27.4664 80.972 28.0403C80.1206 28.6142 79.4584 29.4274 79.0688 30.3773C78.6792 31.3272 78.5797 32.3712 78.7829 33.3776C78.9861 34.384 79.4829 35.3076 80.2106 36.0319C80.9383 36.7562 81.8642 37.2487 82.8715 37.4472C83.8788 37.6458 84.9224 37.5415 85.8704 37.1475C86.8185 36.7535 87.6287 36.0875 88.1986 35.2335C88.7685 34.3795 89.0726 33.3758 89.0727 32.3491C89.0843 31.6615 88.9571 30.9785 88.6986 30.3412C88.4401 29.7039 88.0555 29.1254 87.5681 28.6402C87.0807 28.155 86.5003 27.7732 85.8618 27.5176C85.2233 27.2621 84.5398 27.138 83.8522 27.1529ZM83.8522 35.5024C83.2176 35.5492 82.5837 35.4036 82.033 35.0848C81.4823 34.7659 81.0404 34.2885 80.7651 33.7149C80.4897 33.1412 80.3935 32.4979 80.4891 31.8688C80.5847 31.2397 80.8677 30.6539 81.301 30.188C81.7344 29.722 82.2981 29.3975 82.9187 29.2566C83.5392 29.1157 84.1878 29.1651 84.7799 29.3983C85.372 29.6314 85.8801 30.0376 86.2379 30.5637C86.5958 31.0899 86.7868 31.7117 86.7861 32.348C86.8059 32.749 86.7451 33.1499 86.6074 33.5271C86.4697 33.9043 86.2579 34.25 85.9845 34.544C85.7111 34.838 85.3815 35.0743 85.0153 35.2389C84.6491 35.4035 84.2536 35.4931 83.8522 35.5024ZM72.458 27.1529C71.4313 27.1576 70.4291 27.4664 69.5777 28.0403C68.7264 28.6142 68.0641 29.4274 67.6745 30.3773C67.2849 31.3272 67.1855 32.3712 67.3887 33.3776C67.5919 34.384 68.0887 35.3076 68.8163 36.0319C69.544 36.7562 70.4699 37.2487 71.4772 37.4472C72.4845 37.6458 73.5281 37.5415 74.4762 37.1475C75.4243 36.7535 76.2344 36.0875 76.8043 35.2335C77.3742 34.3795 77.6784 33.3758 77.6784 32.3491C77.6884 31.6619 77.56 30.9798 77.3009 30.3432C77.0418 29.7067 76.6572 29.1288 76.1701 28.6439C75.683 28.1591 75.1034 27.7772 74.4656 27.5211C73.8279 27.2649 73.1451 27.1397 72.458 27.1529ZM72.458 35.5024C71.8234 35.5492 71.1894 35.4036 70.6387 35.0848C70.088 34.7659 69.6462 34.2885 69.3708 33.7149C69.0954 33.1412 68.9993 32.4979 69.0949 31.8688C69.1905 31.2397 69.4734 30.6539 69.9068 30.188C70.3401 29.722 70.9039 29.3975 71.5244 29.2566C72.145 29.1157 72.7935 29.1651 73.3856 29.3983C73.9777 29.6314 74.4858 30.0376 74.8437 30.5637C75.2015 31.0899 75.3926 31.7117 75.3919 32.348C75.4116 32.749 75.3508 33.1499 75.2132 33.5271C75.0755 33.9043 74.8637 34.25 74.5902 34.544C74.3168 34.838 73.9873 35.0743 73.621 35.2389C73.2548 35.4035 72.8594 35.4931 72.458 35.5024ZM58.9133 28.7416V30.9667H64.1951C64.1077 32.0018 63.6776 32.9782 62.9728 33.7414C62.4426 34.2817 61.8049 34.7046 61.1008 34.9826C60.3967 35.2606 59.6421 35.3877 58.8858 35.3554C57.329 35.3554 55.836 34.737 54.7352 33.6361C53.6343 32.5353 53.0159 31.0423 53.0159 29.4855C53.0159 27.9287 53.6343 26.4356 54.7352 25.3348C55.836 24.234 57.329 23.6155 58.8858 23.6155C59.6243 23.6002 60.3585 23.7305 61.0465 23.999C61.7346 24.2674 62.3631 24.6688 62.896 25.1801L64.4485 23.6276C63.7198 22.9069 62.8546 22.3388 61.9036 21.9567C60.9525 21.5747 59.9348 21.3862 58.91 21.4025C57.8233 21.3605 56.7394 21.5382 55.723 21.9251C54.7067 22.312 53.7789 22.9 52.9952 23.6539C52.2116 24.4079 51.5881 25.3123 51.1623 26.3129C50.7365 27.3135 50.517 28.3898 50.517 29.4772C50.517 30.5647 50.7365 31.641 51.1623 32.6416C51.5881 33.6422 52.2116 34.5466 52.9952 35.3006C53.7789 36.0545 54.7067 36.6425 55.723 37.0294C56.7394 37.4162 57.8233 37.594 58.91 37.552C59.9053 37.6108 60.9019 37.4603 61.8355 37.1101C62.7691 36.76 63.6188 36.2179 64.33 35.519C65.0411 34.8201 65.5977 33.9798 65.964 33.0525C66.3303 32.1251 66.498 31.1312 66.4564 30.135C66.4613 29.6722 66.4246 29.2099 66.3467 28.7536L58.9133 28.7416ZM114.307 30.4532C113.995 29.5119 113.4 28.6898 112.604 28.0991C111.807 27.5085 110.848 27.178 109.857 27.1529C109.188 27.1515 108.526 27.2874 107.912 27.5521C107.298 27.8168 106.744 28.2046 106.286 28.6916C105.828 29.1787 105.474 29.7545 105.247 30.3836C105.02 31.0127 104.925 31.6817 104.966 32.3491C104.951 33.0323 105.074 33.7114 105.328 34.346C105.581 34.9806 105.96 35.5577 106.441 36.0427C106.922 36.5277 107.496 36.9107 108.129 37.1689C108.762 37.4271 109.44 37.5551 110.123 37.5454C110.979 37.5521 111.822 37.3454 112.578 36.9441C113.334 36.5427 113.977 35.9594 114.451 35.2468L112.681 34.0234C112.417 34.4651 112.042 34.8305 111.594 35.0835C111.146 35.3365 110.64 35.4684 110.125 35.4662C109.595 35.4875 109.071 35.3484 108.62 35.0671C108.17 34.7859 107.815 34.3755 107.602 33.8896L114.558 31.0171L114.307 30.4532ZM107.216 32.1889C107.192 31.8099 107.243 31.4299 107.368 31.0712C107.493 30.7125 107.688 30.3823 107.942 30.0999C108.196 29.8176 108.503 29.5888 108.847 29.4269C109.19 29.2651 109.563 29.1734 109.942 29.1574C110.334 29.132 110.725 29.2225 111.067 29.4176C111.408 29.6127 111.684 29.9037 111.861 30.2546L107.216 32.1889ZM101.566 37.2382H103.853V21.9445H101.566V37.2382ZM97.8249 28.3137H97.7393C97.3973 27.9242 96.975 27.6133 96.5016 27.4024C96.0281 27.1914 95.5146 27.0853 94.9963 27.0914C94.3077 27.0814 93.6239 27.2084 92.9848 27.465C92.3456 27.7216 91.7639 28.1028 91.2733 28.5862C90.7828 29.0697 90.3933 29.6458 90.1274 30.2812C89.8615 30.9165 89.7246 31.5984 89.7246 32.2871C89.7246 32.9759 89.8615 33.6577 90.1274 34.2931C90.3933 34.9284 90.7828 35.5046 91.2733 35.988C91.7639 36.4715 92.3456 36.8526 92.9848 37.1092C93.6239 37.3659 94.3077 37.4929 94.9963 37.4828C95.515 37.4914 96.0293 37.3865 96.5031 37.1754C96.977 36.9642 97.3989 36.652 97.7393 36.2606H97.8249V37.0802C97.8249 39.0727 96.7617 40.1369 95.0501 40.1369C94.4794 40.1247 93.925 39.9442 93.4566 39.618C92.9881 39.2918 92.6264 38.8345 92.4169 38.3035L90.4364 39.1352C90.8025 40.0547 91.439 40.8416 92.2618 41.3916C93.0846 41.9417 94.055 42.2292 95.0446 42.2161C97.7218 42.2161 99.9348 40.6394 99.9348 36.8004V27.4623H97.826L97.8249 28.3137ZM95.1916 35.5024C94.4027 35.4333 93.6682 35.0711 93.1332 34.4872C92.5982 33.9032 92.3014 33.14 92.3014 32.348C92.3014 31.556 92.5982 30.7928 93.1332 30.2089C93.6682 29.6249 94.4027 29.2627 95.1916 29.1936C95.9902 29.2494 96.7379 29.6059 97.2839 30.1914C97.8299 30.7768 98.1335 31.5475 98.1335 32.348C98.1335 33.1485 97.8299 33.9193 97.2839 34.5047C96.7379 35.0901 95.9902 35.4467 95.1916 35.5024ZM125.01 21.9445H119.538V37.2382H121.825V31.4439H125.015C125.658 31.4749 126.301 31.3749 126.904 31.1502C127.507 30.9254 128.058 30.5805 128.524 30.1365C128.99 29.6924 129.361 29.1583 129.615 28.5666C129.868 27.9749 129.999 27.3379 129.999 26.6942C129.999 26.0505 129.868 25.4136 129.615 24.8219C129.361 24.2302 128.99 23.6961 128.524 23.252C128.058 22.8079 127.507 22.4631 126.904 22.2383C126.301 22.0136 125.658 21.9136 125.015 21.9445H125.01ZM125.01 29.2803H121.819V24.072H125.059C125.424 24.0386 125.791 24.0816 126.138 24.1982C126.485 24.3148 126.804 24.5025 127.074 24.7492C127.345 24.996 127.561 25.2964 127.708 25.6313C127.856 25.9662 127.933 26.3282 127.933 26.6942C127.933 27.0603 127.856 27.4223 127.708 27.7572C127.561 28.0921 127.345 28.3925 127.074 28.6393C126.804 28.886 126.485 29.0737 126.138 29.1903C125.791 29.3069 125.424 29.3499 125.059 29.3165L125.01 29.2803ZM139.119 27.0793C138.285 27.0306 137.455 27.2268 136.732 27.6438C136.008 28.0608 135.423 28.6804 135.047 29.4262L137.065 30.27C137.324 29.8494 137.705 29.5174 138.157 29.3177C138.61 29.118 139.112 29.06 139.597 29.1514C140.083 29.2427 140.53 29.4791 140.879 29.8295C141.227 30.1798 141.462 30.6275 141.551 31.1137V31.2728C140.816 30.8863 139.997 30.6848 139.167 30.6858C136.991 30.6858 134.766 31.9081 134.766 34.1211C134.787 34.594 134.904 35.0577 135.108 35.4848C135.312 35.9118 135.6 36.2935 135.955 36.607C136.31 36.9206 136.724 37.1597 137.172 37.3102C137.621 37.4606 138.096 37.5194 138.568 37.4828C139.142 37.5159 139.714 37.3951 140.225 37.133C140.737 36.8708 141.169 36.4769 141.477 35.9918H141.551V37.214H143.752V31.3452C143.801 28.6308 141.772 27.1156 139.168 27.1156L139.119 27.0793ZM138.838 35.4542C138.092 35.4542 137.053 35.0877 137.053 34.1584C137.053 32.9361 138.348 32.5324 139.497 32.5324C140.223 32.5145 140.941 32.6918 141.575 33.0458C141.499 33.7098 141.184 34.3235 140.689 34.7732C140.195 35.2229 139.554 35.4781 138.886 35.4915L138.838 35.4542ZM151.772 27.4217L149.161 34.0454H149.088L146.373 27.4195H143.929L147.999 36.6742L145.673 41.8354H148.057L154.329 27.4217H151.772ZM131.233 37.202H133.508V21.9445H131.233V37.202Z" fill="white"/>
<path d="M13.3121 9.76771C12.9192 10.2525 12.7265 10.8691 12.7734 11.4914V38.5216C12.7366 39.1487 12.9424 39.7659 13.3483 40.2453L13.4339 40.3309L28.5454 25.1842V24.8551L13.3977 9.68213L13.3121 9.76771Z" fill="white" stroke="#251E35" stroke-width="1.09718" stroke-miterlimit="10"/>
<path d="M33.5562 30.2323L28.5443 25.1853V24.8561L33.5562 19.7827L33.666 19.8442L39.6698 23.2356C41.3814 24.2131 41.3814 25.803 39.6698 26.7685L33.6912 30.1698L33.5562 30.2323Z" fill="white" stroke="#251E35" stroke-width="1.09718" stroke-miterlimit="10"/>
<path d="M33.7044 30.1709L28.5476 25.0142L13.3121 40.2453C13.658 40.5534 14.1014 40.7297 14.5643 40.7431C15.0273 40.7565 15.4802 40.6063 15.8433 40.3188L33.7044 30.172" fill="white"/>
<path d="M33.7044 30.1709L28.5476 25.0142L13.3121 40.2453C13.658 40.5534 14.1014 40.7297 14.5643 40.7431C15.0273 40.7565 15.4802 40.6063 15.8433 40.3188L33.7044 30.172" stroke="#251E35" stroke-width="1.09718" stroke-miterlimit="10"/>
<path d="M33.7044 19.8413L15.8433 9.69347C15.4792 9.40821 15.0268 9.25938 14.5645 9.27281C14.1021 9.28624 13.6591 9.46107 13.3121 9.76698L28.5454 25.0113L33.7044 19.8413Z" fill="white" stroke="#251E35" stroke-width="1.09718" stroke-miterlimit="10"/>
</g>
<defs>
<clipPath id="clip0_1_216">
<rect width="166.14" height="50" fill="white"/>
</clipPath>
</defs>
</svg>
